<svg width="1200" height="630" xmlns="http://www.w3.org/2000/svg">
  <defs>
    <linearGradient id="titleGradient" x1="0%" y1="0%" x2="0%" y2="100%">
      <stop offset="0%" style="stop-color:#ffffff;stop-opacity:1" />
      <stop offset="100%" style="stop-color:#808080;stop-opacity:1" />
    </linearGradient>
    
    <pattern id="grid" width="60" height="60" patternUnits="userSpaceOnUse">
      <path d="M 60 0 L 0 0 0 60" fill="none" stroke="#202020" stroke-width="1" opacity="0.3"/>
    </pattern>
  </defs>
  
  <rect width="1200" height="630" fill="#000000"/>
  <rect width="1200" height="630" fill="url(#grid)"/>
  
  <rect x="1000" y="40" width="160" height="40" fill="#1a1a1a" stroke="#404040" stroke-width="2" rx="0"/>
  <text x="1080" y="67" font-family="monospace" font-size="12" font-weight="600" letter-spacing="1.5" fill="#ffffff" text-anchor="middle">FREE FOREVER</text>
  
  <g transform="translate(600, 200)">
    <text x="0" y="0" font-family="monospace" font-size="16" font-weight="600" letter-spacing="5" fill="#808080" text-anchor="middle">PRIVACY FIRST - 100% OFFLINE</text>
    <text x="0" y="110" font-family="Arial, sans-serif" font-size="120" font-weight="900" letter-spacing="-3" fill="url(#titleGradient)" text-anchor="middle">freesper</text>
    <rect x="-60" y="130" width="120" height="2" fill="url(#titleGradient)" opacity="0.5"/>
    <text x="0" y="180" font-family="Arial, sans-serif" font-size="36" font-weight="300" letter-spacing="-0.5" fill="#b0b0b0" text-anchor="middle">Free Speech-to-Text for Mac</text>
    
    <g transform="translate(0, 230)">
      <text x="-250" y="0" font-family="monospace" font-size="14" font-weight="400" letter-spacing="1" fill="#606060" text-anchor="start">NO CLOUD</text>
      <text x="-50" y="0" font-family="monospace" font-size="14" font-weight="400" letter-spacing="1" fill="#606060" text-anchor="start">NO SUBSCRIPTIONS</text>
      <text x="180" y="0" font-family="monospace" font-size="14" font-weight="400" letter-spacing="1" fill="#606060" text-anchor="start">OPEN SOURCE</text>
    </g>
  </g>
  
  <g transform="translate(420, 550)" opacity="0.15">
    <rect x="0" y="20" width="4" height="20" fill="#ffffff" rx="2"/>
    <rect x="8" y="5" width="4" height="35" fill="#ffffff" rx="2"/>
    <rect x="16" y="0" width="4" height="45" fill="#ffffff" rx="2"/>
    <rect x="24" y="10" width="4" height="30" fill="#ffffff" rx="2"/>
    <rect x="32" y="-5" width="4" height="50" fill="#ffffff" rx="2"/>
    <rect x="40" y="5" width="4" height="40" fill="#ffffff" rx="2"/>
    <rect x="48" y="15" width="4" height="25" fill="#ffffff" rx="2"/>
    <rect x="56" y="-10" width="4" height="55" fill="#ffffff" rx="2"/>
    <rect x="64" y="5" width="4" height="35" fill="#ffffff" rx="2"/>
    <rect x="72" y="0" width="4" height="45" fill="#ffffff" rx="2"/>
    <rect x="80" y="10" width="4" height="30" fill="#ffffff" rx="2"/>
    <rect x="88" y="5" width="4" height="40" fill="#ffffff" rx="2"/>
    <rect x="96" y="-5" width="4" height="50" fill="#ffffff" rx="2"/>
    <rect x="104" y="5" width="4" height="35" fill="#ffffff" rx="2"/>
    <rect x="112" y="15" width="4" height="25" fill="#ffffff" rx="2"/>
    <rect x="120" y="0" width="4" height="45" fill="#ffffff" rx="2"/>
    <rect x="128" y="5" width="4" height="40" fill="#ffffff" rx="2"/>
    <rect x="136" y="10" width="4" height="30" fill="#ffffff" rx="2"/>
    <rect x="144" y="-5" width="4" height="50" fill="#ffffff" rx="2"/>
    <rect x="152" y="5" width="4" height="35" fill="#ffffff" rx="2"/>
    <rect x="164" y="5" width="4" height="35" fill="#ffffff" rx="2"/>
    <rect x="172" y="-5" width="4" height="50" fill="#ffffff" rx="2"/>
    <rect x="180" y="10" width="4" height="30" fill="#ffffff" rx="2"/>
    <rect x="188" y="5" width="4" height="40" fill="#ffffff" rx="2"/>
    <rect x="196" y="0" width="4" height="45" fill="#ffffff" rx="2"/>
    <rect x="204" y="15" width="4" height="25" fill="#ffffff" rx="2"/>
    <rect x="212" y="5" width="4" height="35" fill="#ffffff" rx="2"/>
    <rect x="220" y="-5" width="4" height="50" fill="#ffffff" rx="2"/>
    <rect x="228" y="5" width="4" height="40" fill="#ffffff" rx="2"/>
    <rect x="236" y="10" width="4" height="30" fill="#ffffff" rx="2"/>
    <rect x="244" y="0" width="4" height="45" fill="#ffffff" rx="2"/>
    <rect x="252" y="5" width="4" height="35" fill="#ffffff" rx="2"/>
    <rect x="260" y="-10" width="4" height="55" fill="#ffffff" rx="2"/>
    <rect x="268" y="15" width="4" height="25" fill="#ffffff" rx="2"/>
    <rect x="276" y="5" width="4" height="40" fill="#ffffff" rx="2"/>
    <rect x="284" y="-5" width="4" height="50" fill="#ffffff" rx="2"/>
    <rect x="292" y="10" width="4" height="30" fill="#ffffff" rx="2"/>
    <rect x="300" y="0" width="4" height="45" fill="#ffffff" rx="2"/>
    <rect x="308" y="5" width="4" height="35" fill="#ffffff" rx="2"/>
    <rect x="316" y="20" width="4" height="20" fill="#ffffff" rx="2"/>
  </g>
</svg>
